{"title":"Someone.Elses.Happiness.2005.FESTiVAL.DVDRip.XviD-EXViD","uid":6483594,"size":741815768,"categoryP":"video","categoryS":"movies","magnet":"?xt=urn:btih:bba85ae26900e6c6ea06e69ff419669ea5d41454&amp;dn=Someone.Elses.Happiness.2005.FESTiVAL.DVDRip.XviD-EXViD&amp;tr=udp%3A%2F%2Ftracker.openbittorrent.com%3A80&amp;tr=udp%3A%2F%2Fopen.demonii.com%3A1337&amp;tr=udp%3A%2F%2Ftracker.coppersurfer.tk%3A6969&amp;tr=udp%3A%2F%2Fexodus.desync.com%3A6969","seeders":0,"leechers":2,"uploader":"TvTeam","files":6,"time":1308624601,"description":". \n  &lt;a href=&quot;\nhttp://www.torrenting.com/&quot; rel=&quot;nofollow&quot; target=&quot;_NEW&quot;&gt;\nhttp://www.torrenting.com/&lt;/a&gt;        :     Greatest Movie Tracker on The Net!!!\n &lt;a href=&quot;\nhttp://www.Torrenting.com&quot; rel=&quot;nofollow&quot; target=&quot;_NEW&quot;&gt;\nhttp://www.Torrenting.com&lt;/a&gt;          :     Once &amp; For all ;)\n\n\n               www . Torrenting . Com \n\n(((((((((((((= Enjoy No RAR releases =))))))))))))))))))))\n\n\n...................................NFO:....................................\n\n.                                                                                                     \n       \n     \n     \n       \n       \n     \n     \n                                         \n                                         \n                EXVID                    \n                                         \n         \n                                         \n         Filled the Archives             \n                                         \n         \n                                         \n                With:                    \n                                         \n         \n                                         \n                                    \n     E240                           \n                                    \n     SP               (C) 2009      \n                                         \n     \n     \n     \n                                                                                  \n                                                                                   \n         Someone.Elses.Happiness.2005.FESTiVAL.DVDRip.XviD-EXViD                    \n                                                                                   \n                                                                                  \n     \n                                                                                               \nEXViD aims to iNTERNAL those releases which have been lost in the archives.\nEXViD aims to PRE non-internal releases which have poor sources and are likely skipped by others. &lt;a href=&quot;\nhttp://www.imdb.com/title/tt0262782/&quot; rel=&quot;nofollow&quot; target=&quot;_NEW&quot;&gt;\nhttp://www.imdb.com/title/tt0262782/&lt;/a&gt;\nSubtitles: EN, FR\nDate: 2011.06\n\nDirector: Fien Troch\n\nGenres:\nDrama\n\nPlot:\nA village outside Brussels is rocked by the hit-and-run killing of a child.\n\nCast:\nIna Geerts \t ... \t Christine \nJohanna ter Steege \t ... \t Ann \nJohan Leysen \t ... \t Francis \nNatali Broods \t ... \t Gerda \nElmo Mistlaen \t ... \t Sam \nPeter Van den Begin \t ... \t Mark \nJosse De Pauw \t ... \t Inspecteur \nViviane de Muynck \t ... \t Moeder Christine \nGilles Lagay \t ... \t Vader Christine \nGeert Van Rampelberg \t ... \t Collega Mark \nRobbie Cleiren \t ... \t Fred \nBruno Vanden Broucke \t ... \t Hendrik \nSara De Bosschere \t ... \t Marie \nFrank Chartier \t ... \t Njord \nLaure Humblet \t ... \t Vicky\n\nStats:\nFormat                           : AVI\nFormat/Info                      : Audio Video Interleave\nFile size                        : 699 MiB\nDuration                         : 1h 37mn\nOverall bit rate                 : 1 005 Kbps\nWriting application              : VirtualDubMod 1.5.10.2 (build 2540/release)\nWriting library                  : VirtualDubMod build 2540/release\n\nVideo\nID                               : 0\nFormat                           : MPEG-4 Visual\nFormat profile                   : Advanced Simple@L5\nFormat settings, BVOP            : Yes\nFormat settings, QPel            : No\nFormat settings, GMC             : No warppoints\nFormat settings, Matrix          : Default (H.263)\nMuxing mode                      : Packed bitstream\nCodec ID                         : XVID\nCodec ID/Hint                    : XviD\nDuration                         : 1h 37mn\nBit rate                         : 772 Kbps\nWidth                            : 624 pixels\nHeight                           : 256 pixels\nDisplay aspect ratio             : 2.40:1\nFrame rate                       : 25.000 fps\nColor space                      : YUV\nChroma subsampling               : 4:2:0\nBit depth                        : 8 bits\nScan type                        : Progressive\nBits/(Pixel*Frame)               : 0.193\nStream size                      : 537 MiB (77%)\nWriting library                  : XviD 62\n\nAudio\nID                               : 1\nFormat                           : AC-3\nFormat/Info                      : Audio Coding 3\nMode extension                   : CM (complete main)\nCodec ID                         : 2000\nDuration                         : 1h 37mn\nBit rate mode                    : Constant\nBit rate                         : 224 Kbps\nChannel(s)                       : 2 channels\nChannel positions                : Front: L R\nSampling rate                    : 48.0 KHz\nBit depth                        : 16 bits\nStream size                      : 156 MiB (22%)\nAlignment                        : Split accross interleaves\nInterleave, duration             : 40 ms (1.00 video frame)\nInterleave, preload duration     : 500 ms\n\n\n\n\nRelease notes:\nEnglish .srt subs included to fit on disc.\n\nenjoy!\n\nLooking for:\n75TB+ Archives\nDUTCH/FLEMiSH Archives\n                                                                                                    \nGreets: CRBS EPiSODE FiCO FLS iLS KLASSiGER LiPSYNC MADE NODLABS RUNNER SPRiNTER      \n   \n\n                                                                    ASCII DONE BY XX^NFO 2oo9","torrent":{"xt":"urn:btih:bba85ae26900e6c6ea06e69ff419669ea5d41454","amp;dn":"Someone.Elses.Happiness.2005.FESTiVAL.DVDRip.XviD-EXViD","amp;tr":["udp%3A%2F%2Ftracker.openbittorrent.com%3A80","udp%3A%2F%2Fopen.demonii.com%3A1337","udp%3A%2F%2Ftracker.coppersurfer.tk%3A6969","udp%3A%2F%2Fexodus.desync.com%3A6969"],"infoHash":"bba85ae26900e6c6ea06e69ff419669ea5d41454","infoHashBuffer":{"type":"Buffer","data":[187,168,90,226,105,0,230,198,234,6,230,159,244,25,102,158,165,212,20,84]},"announce":[],"urlList":[]}}